<mxfile host="app.diagrams.net" modified="2022-03-30T05:43:40.359Z" agent="5.0 (Windows NT 10.0; Win64; x64) AppleWebKit/537.36 (KHTML, like Gecko) Chrome/99.0.4844.84 Safari/537.36" etag="LqsFjTp-e1Js4FI6NuRo" version="17.2.5" type="github">
  <diagram id="2mjPUPT9OZtOktFbePXb" name="Page-1">
    <mxGraphModel dx="782" dy="436" grid="1" gridSize="10" guides="1" tooltips="1" connect="1" arrows="1" fold="1" page="1" pageScale="1" pageWidth="827" pageHeight="1169" math="0" shadow="0">
      <root>
        <mxCell id="0" />
        <mxCell id="1" parent="0" />
        <mxCell id="X8UXNErv3cADNR00jeIR-2" value="" style="rounded=0;whiteSpace=wrap;html=1;" parent="1" vertex="1">
          <mxGeometry x="120" width="550" height="680" as="geometry" />
        </mxCell>
        <mxCell id="X8UXNErv3cADNR00jeIR-3" value="email/ID/&lt;span style=&quot;color: rgb(51 , 51 , 51) ; font-family: &amp;#34;tahoma&amp;#34; , &amp;#34;microsoft yahei&amp;#34; , , , &amp;#34;malgun gothic&amp;#34; , sans-serif ; font-size: 14px ; line-height: 25.9896px ; text-align: justify ; background-color: rgb(247 , 248 , 250)&quot;&gt;organization&lt;/span&gt;" style="rounded=1;whiteSpace=wrap;html=1;" parent="1" vertex="1">
          <mxGeometry x="260" y="30" width="320" height="20" as="geometry" />
        </mxCell>
        <mxCell id="X8UXNErv3cADNR00jeIR-5" value="requester" style="rounded=0;whiteSpace=wrap;html=1;" parent="1" vertex="1">
          <mxGeometry x="170" y="25" width="60" height="30" as="geometry" />
        </mxCell>
        <mxCell id="X8UXNErv3cADNR00jeIR-6" value="question" style="rounded=0;whiteSpace=wrap;html=1;" parent="1" vertex="1">
          <mxGeometry x="170" y="70" width="60" height="30" as="geometry" />
        </mxCell>
        <mxCell id="X8UXNErv3cADNR00jeIR-7" value="" style="rounded=1;whiteSpace=wrap;html=1;" parent="1" vertex="1">
          <mxGeometry x="260" y="75" width="320" height="20" as="geometry" />
        </mxCell>
        <mxCell id="X8UXNErv3cADNR00jeIR-8" value="type" style="rounded=0;whiteSpace=wrap;html=1;" parent="1" vertex="1">
          <mxGeometry x="170" y="120" width="60" height="30" as="geometry" />
        </mxCell>
        <mxCell id="X8UXNErv3cADNR00jeIR-9" value="&lt;span style=&quot;color: rgb(51 , 51 , 51) ; font-family: &amp;#34;tahoma&amp;#34; , &amp;#34;microsoft yahei&amp;#34; , , , &amp;#34;malgun gothic&amp;#34; , sans-serif ; font-size: 14px ; line-height: 25.9896px ; text-align: justify ; background-color: rgb(247 , 248 , 250)&quot;&gt;attachment information&lt;/span&gt;" style="rounded=0;whiteSpace=wrap;html=1;" parent="1" vertex="1">
          <mxGeometry x="160" y="270" width="150" height="30" as="geometry" />
        </mxCell>
        <mxCell id="X8UXNErv3cADNR00jeIR-12" value="" style="verticalLabelPosition=bottom;verticalAlign=top;html=1;shape=mxgraph.flowchart.or;rotation=45;" parent="1" vertex="1">
          <mxGeometry x="330" y="272.5" width="24" height="25" as="geometry" />
        </mxCell>
        <mxCell id="X8UXNErv3cADNR00jeIR-14" value="" style="strokeWidth=2;html=1;shape=mxgraph.flowchart.annotation_2;align=left;labelPosition=right;pointerEvents=1;" parent="1" vertex="1">
          <mxGeometry x="370" y="235" width="50" height="100" as="geometry" />
        </mxCell>
        <mxCell id="Sz4HlU1IlZtaxrlrikUw-4" value="SN/ MTM/ MT/CC/Basic name&lt;br&gt;PN/8S/POL/picture" style="whiteSpace=wrap;html=1;align=left;strokeWidth=2;" vertex="1" parent="1">
          <mxGeometry x="420" y="237" width="120" height="95" as="geometry" />
        </mxCell>
        <mxCell id="Sz4HlU1IlZtaxrlrikUw-6" value="BOM/Part" style="rounded=0;whiteSpace=wrap;html=1;" vertex="1" parent="1">
          <mxGeometry x="260" y="120" width="320" height="30" as="geometry" />
        </mxCell>
      </root>
    </mxGraphModel>
  </diagram>
</mxfile>
